<svg width="30" height="30" viewBox="0 0 30 30" fill="none" xmlns="http://www.w3.org/2000/svg">
<path d="M0 6C0 2.68629 2.68629 0 6 0H24C27.3137 0 30 2.68629 30 6V24C30 27.3137 27.3137 30 24 30H6C2.68629 30 0 27.3137 0 24V6Z" fill="#262B43" fill-opacity="0.08"/>
<path d="M10.3332 12.667H19.6665V20.2503C19.6665 20.405 19.605 20.5534 19.4957 20.6628C19.3863 20.7722 19.2379 20.8337 19.0832 20.8337H10.9165C10.7618 20.8337 10.6134 20.7722 10.504 20.6628C10.3946 20.5534 10.3332 20.405 10.3332 20.2503V12.667ZM11.4998 13.8337V19.667H18.4998V13.8337H11.4998ZM13.2498 15.0003H14.4165V18.5003H13.2498V15.0003ZM15.5832 15.0003H16.7498V18.5003H15.5832V15.0003ZM12.0832 10.917V9.75033C12.0832 9.59562 12.1446 9.44724 12.254 9.33785C12.3634 9.22845 12.5118 9.16699 12.6665 9.16699H17.3332C17.4879 9.16699 17.6363 9.22845 17.7457 9.33785C17.855 9.44724 17.9165 9.59562 17.9165 9.75033V10.917H20.8332V12.0837H9.1665V10.917H12.0832ZM13.2498 10.3337V10.917H16.7498V10.3337H13.2498Z" fill="#808080" fill-opacity="0.55"/>
</svg>
