<svg width="31" height="30" viewBox="0 0 31 30" fill="none" xmlns="http://www.w3.org/2000/svg">
<path d="M0 6C0 2.68629 2.68629 0 6 0H25C28.3137 0 31 2.68629 31 6V24C31 27.3137 28.3137 30 25 30H6C2.68629 30 0 27.3137 0 24V6Z" fill="#262B43" fill-opacity="0.08"/>
<path d="M18.6713 9.00039L17.338 10.3337H10.8333V19.6671H20.1667V13.1624L21.5 11.8291V20.3337C21.5 20.5105 21.4298 20.6801 21.3047 20.8051C21.1797 20.9302 21.0101 21.0004 20.8333 21.0004H10.1667C9.98986 21.0004 9.82029 20.9302 9.69526 20.8051C9.57024 20.6801 9.5 20.5105 9.5 20.3337V9.66706C9.5 9.49025 9.57024 9.32068 9.69526 9.19565C9.82029 9.07063 9.98986 9.00039 10.1667 9.00039H18.6713ZM21.1567 8.40039L22.1 9.34439L15.972 15.4724L15.0307 15.4744L15.0293 14.5297L21.1567 8.40039Z" fill="#808080" fill-opacity="0.55"/>
</svg>
