<svg width="31" height="30" viewBox="0 0 31 30" fill="none" xmlns="http://www.w3.org/2000/svg">
<path d="M0 6C0 2.68629 2.68629 0 6 0H25C28.3137 0 31 2.68629 31 6V24C31 27.3137 28.3137 30 25 30H6C2.68629 30 0 27.3137 0 24V6Z" fill="#262B43" fill-opacity="0.08"/>
<path d="M14.707 11.5H19C19.1326 11.5 19.2598 11.5527 19.3536 11.6464C19.4473 11.7402 19.5 11.8674 19.5 12V19C19.5 19.1326 19.4473 19.2598 19.3536 19.3536C19.2598 19.4473 19.1326 19.5 19 19.5H10C9.86739 19.5 9.74021 19.4473 9.64645 19.3536C9.55268 19.2598 9.5 19.1326 9.5 19V11C9.5 10.8674 9.55268 10.7402 9.64645 10.6464C9.74021 10.5527 9.86739 10.5 10 10.5H13.707L14.707 11.5ZM10.5 11.5V18.5H18.5V12.5H14.293L13.293 11.5H10.5ZM15 15.5V17.5H14V15.5H12.5L14.5 13.5L16.5 15.5H15Z" fill="#808080" fill-opacity="0.55"/>
</svg>
