<svg width="20" height="21" viewBox="0 0 20 21" fill="none" xmlns="http://www.w3.org/2000/svg">
<g clip-path="url(#clip0_1692_12732)">
<path d="M19.6875 10.5C19.6875 15.8503 15.3503 20.1875 10 20.1875C4.64973 20.1875 0.3125 15.8503 0.3125 10.5C0.3125 5.14973 4.64973 0.8125 10 0.8125C15.3503 0.8125 19.6875 5.14973 19.6875 10.5ZM8.87945 15.6295L16.067 8.44195C16.311 8.19789 16.311 7.80215 16.067 7.55809L15.1831 6.67422C14.939 6.43012 14.5433 6.43012 14.2992 6.67422L8.4375 12.5359L5.70082 9.79918C5.45676 9.55512 5.06102 9.55512 4.81691 9.79918L3.93305 10.683C3.68898 10.9271 3.68898 11.3229 3.93305 11.5669L7.99555 15.6294C8.23965 15.8735 8.63535 15.8735 8.87945 15.6295Z" fill="#72E128"/>
</g>
<defs>
<clipPath id="clip0_1692_12732">
<rect width="20" height="20" fill="white" transform="translate(0 0.5)"/>
</clipPath>
</defs>
</svg>
